<svg width="128" height="128" viewBox="0 0 128 128" xmlns="http://www.w3.org/2000/svg">
    <defs>
        <linearGradient id="breezeBackground" x1="0%" y1="0%" x2="0%" y2="100%">
            <stop offset="0%" style="stop-color:#5c616c;stop-opacity:1" />
            <stop offset="100%" style="stop-color:#31363b;stop-opacity:1" />
        </linearGradient>

        <filter id="dropShadow" x="-20%" y="-20%" width="140%" height="140%">
            <feGaussianBlur in="SourceAlpha" stdDeviation="1.5"/>
            <feOffset dx="1" dy="1" result="offsetblur"/>
            <feComponentTransfer>
                <feFuncA type="linear" slope="0.5"/>
            </feComponentTransfer>
            <feMerge>
                <feMergeNode/>
                <feMergeNode in="SourceGraphic"/>
            </feMerge>
        </filter>
    </defs>

    <rect x="9" y="9" width="110" height="110" rx="4" ry="4" fill="url(#breezeBackground)" />

    <path d="M 13 9 L 115 9" stroke="#ffffff" stroke-opacity="0.1" stroke-width="1" />

    <path d="M 46 38 L 78 64 L 46 90"
          fill="none"
          stroke="#bdc3c7"
          stroke-width="10"
          stroke-linecap="square"
          stroke-linejoin="miter"
          stroke-miterlimit="10" />

    <g transform="translate(84, 84)" filter="url(#dropShadow)">
        <path d="M 5 0 L 22 0 C 32 0 38 4 38 12 C 38 20 32 24 22 24 L 14 24 L 14 38 L 5 38 Z M 14 8 L 14 17 L 21 17 C 25 17 28 16 28 12 C 28 9 25 8 21 8 Z"
              fill="#ff0000"
              stroke="#ffffff"
              stroke-width="3.5"
              paint-order="stroke fill"
              stroke-linejoin="round"/>
        </g>
    </svg>
